<svg id="color" enable-background="new 0 0 24 24" height="512" viewBox="0 0 24 24" width="512" xmlns="http://www.w3.org/2000/svg"><path d="m23 8.04h-22c-.552 0-1 .448-1 1v11.96c0 1.654 1.346 3 3 3h18c1.654 0 3-1.346 3-3v-11.96c0-.552-.448-1-1-1z" fill="#eceff1"/><path d="m21 3h-18c-1.657 0-3 1.343-3 3v3.04h24v-3.04c0-1.657-1.343-3-3-3z" fill="#2196f3"/><path d="m6 0h-1c-.552 0-1 .448-1 1v4c0 .552.448 1 1 1h1c.552 0 1-.448 1-1v-4c0-.552-.448-1-1-1z" fill="#607d8b"/><path d="m19 0h-1c-.552 0-1 .448-1 1v4c0 .552.448 1 1 1h1c.552 0 1-.448 1-1v-4c0-.552-.448-1-1-1z" fill="#607d8b"/><path d="m10.25 21.045c-1.24 0-2.25-1.009-2.25-2.25 0-.788.415-1.52 1.083-1.908.358-.208.817-.086 1.025.271.208.358.087.817-.271 1.025-.211.123-.337.352-.337.612 0 .414.337.75.75.75s.75-.337.75-.75c0-.107-.021-.199-.063-.279-.193-.366-.054-.82.312-1.014.365-.195.819-.054 1.014.312.157.298.237.628.237.981 0 1.241-1.01 2.25-2.25 2.25z" fill="#ff9800"/><path d="m17.25 20.569c-.07 0-.142-.01-.211-.03l-10.5-3.074c-.319-.094-.539-.387-.539-.72v-1.5c0-.335.222-.629.544-.721l10.5-3c.225-.063.471-.02.657.123.189.141.299.363.299.598v7.574c0 .236-.111.458-.301.6-.131.099-.289.15-.449.15z" fill="#ffc107"/><g fill="#ffb300"><path d="m17.25 20.995c-.414 0-.75-.336-.75-.75v-8.5c0-.414.336-.75.75-.75s.75.336.75.75v8.5c0 .414-.336.75-.75.75z"/><path d="m6.75 17.995c-.414 0-.75-.336-.75-.75v-2.5c0-.414.336-.75.75-.75s.75.336.75.75v2.5c0 .414-.336.75-.75.75z"/></g></svg>