<?xml version="1.0" encoding="iso-8859-1"?>
<!-- Generator: Adobe Illustrator 19.0.0, SVG Export Plug-In . SVG Version: 6.00 Build 0)  -->
<svg version="1.1" id="Capa_1" xmlns="http://www.w3.org/2000/svg" xmlns:xlink="http://www.w3.org/1999/xlink" x="0px" y="0px"
	 viewBox="0 0 512 512" style="enable-background:new 0 0 512 512;" xml:space="preserve">
<path style="fill:#93480E;" d="M98.472,231.386c-4.482,0-8.909-2.032-11.811-5.889c-4.905-6.517-3.598-15.776,2.919-20.682
	l137.846-103.744c6.518-4.904,15.777-3.598,20.682,2.919c4.905,6.517,3.598,15.776-2.919,20.682L107.343,228.416
	C104.682,230.419,101.564,231.386,98.472,231.386z"/>
<path style="fill:#7C3200;" d="M413.527,231.386c-3.092,0-6.209-0.967-8.869-2.97L266.811,124.672
	c-6.517-4.904-7.825-14.165-2.92-20.682c4.905-6.516,14.165-7.824,20.682-2.919l137.846,103.744
	c6.517,4.904,7.825,14.165,2.92,20.682C422.436,229.353,418.009,231.386,413.527,231.386z"/>
<path style="fill:#6972DA;" d="M467.692,201.846H44.308C19.876,201.846,0,221.723,0,246.154v196.923
	c0,24.431,19.876,44.308,44.308,44.308h423.385c24.431,0,44.308-19.876,44.308-44.308V246.154
	C512,221.723,492.124,201.846,467.692,201.846z"/>
<path style="fill:#4F5EC6;" d="M467.692,201.846H256v285.538h211.692c24.431,0,44.308-19.876,44.308-44.308V246.154
	C512,221.723,492.124,201.846,467.692,201.846z"/>
<g>
	<path style="fill:#C7EEFF;" d="M118.154,270.769H98.462C79.459,270.769,64,286.229,64,305.231V384
		c0,19.002,15.459,34.462,34.462,34.462h19.692c19.002,0,34.462-15.459,34.462-34.462v-78.769
		C152.615,286.229,137.156,270.769,118.154,270.769z M123.077,384c0,2.715-2.208,4.923-4.923,4.923H98.462
		c-2.715,0-4.923-2.208-4.923-4.923v-78.769c0-2.715,2.208-4.923,4.923-4.923h19.692c2.715,0,4.923,2.209,4.923,4.923V384z"/>
	<path style="fill:#C7EEFF;" d="M216.615,270.769h-19.692c-19.002,0-34.462,15.459-34.462,34.462v98.462
		c0,8.157,6.613,14.769,14.769,14.769c8.157,0,14.769-6.613,14.769-14.769v-44.308h24.615c19.002,0,34.462-15.459,34.462-34.462
		v-19.692C251.077,286.229,235.617,270.769,216.615,270.769z M221.538,324.923c0,2.715-2.208,4.923-4.923,4.923H192v-24.615
		c0-2.715,2.208-4.923,4.923-4.923h19.692c2.715,0,4.923,2.209,4.923,4.923V324.923z"/>
</g>
<g>
	<path style="fill:#A4D9F5;" d="M334.769,300.308c8.157,0,14.769-6.613,14.769-14.769s-6.613-14.769-14.769-14.769h-59.077
		c-8.157,0-14.769,6.613-14.769,14.769v118.154c0,8.157,6.613,14.769,14.769,14.769h59.077c8.157,0,14.769-6.613,14.769-14.769
		c0-8.157-6.613-14.769-14.769-14.769h-44.308v-29.538h24.615c8.157,0,14.769-6.613,14.769-14.769s-6.613-14.769-14.769-14.769
		h-24.615v-29.538H334.769z"/>
	<path style="fill:#A4D9F5;" d="M433.231,270.769c-8.157,0-14.769,6.613-14.769,14.769v55.59l-31.098-62.195
		c-3.062-6.127-9.938-9.344-16.603-7.77c-6.667,1.574-11.376,7.524-11.376,14.374v118.154c0,8.157,6.613,14.769,14.769,14.769
		s14.769-6.613,14.769-14.769v-55.59l31.098,62.195c2.542,5.086,7.711,8.165,13.206,8.165c1.125,0,2.265-0.129,3.397-0.397
		c6.667-1.573,11.376-7.523,11.376-14.373V285.538C448,277.382,441.387,270.769,433.231,270.769z"/>
</g>
<path style="fill:#1692FF;" d="M256,24.615c-29.86,0-54.154,24.293-54.154,54.154S226.14,132.923,256,132.923
	s54.154-24.293,54.154-54.154S285.86,24.615,256,24.615z"/>
<path style="fill:#007FDD;" d="M256,24.615L256,24.615v108.308l0,0c29.86,0,54.154-24.293,54.154-54.154S285.86,24.615,256,24.615z"
	/>
<g>
</g>
<g>
</g>
<g>
</g>
<g>
</g>
<g>
</g>
<g>
</g>
<g>
</g>
<g>
</g>
<g>
</g>
<g>
</g>
<g>
</g>
<g>
</g>
<g>
</g>
<g>
</g>
<g>
</g>
</svg>
