<svg id="Capa_1" enable-background="new 0 0 502 502" height="512" viewBox="0 0 502 502" width="512" xmlns="http://www.w3.org/2000/svg" xmlns:xlink="http://www.w3.org/1999/xlink"><linearGradient id="lg1"><stop offset=".0223" stop-color="#f7f0a9"/><stop offset=".9994" stop-color="#f4e46a"/></linearGradient><linearGradient id="SVGID_1_" gradientUnits="userSpaceOnUse" x1="387.88" x2="496.179" xlink:href="#lg1" y1="235.508" y2="235.508"/><linearGradient id="SVGID_2_" gradientUnits="userSpaceOnUse" x1="59.971" x2="59.971" y1="502" y2="411.663"><stop offset=".0212" stop-color="#bbe3f4"/><stop offset="1" stop-color="#78c5e6"/></linearGradient><linearGradient id="SVGID_3_" gradientUnits="userSpaceOnUse" x1="204.899" x2="204.899" y1="500.095" y2="221.323"><stop offset="0" stop-color="#78c5e6"/><stop offset=".9788" stop-color="#bbe3f4"/></linearGradient><linearGradient id="SVGID_4_" gradientUnits="userSpaceOnUse" x1="297.101" x2="297.101" xlink:href="#lg1" y1="278.772" y2="0"/><g><path d="m490.893 253.041c-14.308-11.514-32-31.303-40.722-62.701l-62.291 59.088s41.301 42.91 97.83 28.165c11.184-2.918 14.188-17.305 5.183-24.552z" fill="url(#SVGID_1_)"/><path d="m450.171 190.34-62.291 59.088s11.033 11.461 29.497 20.501c5.445-3.633 10.699-7.521 15.724-11.676 12.525-10.355 23.182-21.888 31.86-34.309-5.899-9.328-11.134-20.442-14.79-33.604z" fill="#eede2c"/><path d="m11.107 474.364c14.308-11.514 32-31.303 40.722-62.702l62.291 59.088s-41.301 42.91-97.83 28.165c-11.184-2.917-14.188-17.304-5.183-24.551z" fill="url(#SVGID_2_)"/><path d="m51.829 411.663 62.291 59.088s-11.033 11.461-29.497 20.501c-5.445-3.633-10.699-7.521-15.724-11.676-12.525-10.355-23.182-21.888-31.86-34.309 5.899-9.328 11.134-20.442 14.79-33.604z" fill="#59c2e7"/><ellipse cx="204.899" cy="360.709" fill="url(#SVGID_3_)" rx="168.589" ry="139.386"/><path d="m225.476 258.438-20.577-37.115c-26.446 0-51.466 5.04-73.741 14.012 7.666 9.636 16.545 18.677 26.587 26.979 12.131 10.03 25.519 18.598 39.854 25.604 10.963 5.358 24.183.311 28.896-10.945 2.514-6.008 2.139-12.838-1.019-18.535z" fill="#59c2e7"/><ellipse cx="297.101" cy="139.386" fill="url(#SVGID_4_)" rx="168.589" ry="139.386"/><g><path d="m381.795 67.484c-8.429-5.917-17.746-10.904-27.689-14.822-5.416-2.134-8.075-8.254-5.942-13.669 2.135-5.415 8.253-8.073 13.669-5.942 11.49 4.528 22.281 10.308 32.071 17.18 4.764 3.344 5.916 9.917 2.571 14.681-3.353 4.781-9.929 5.906-14.68 2.572z" fill="#fff9da"/></g><g><path d="m318.84 43.592c-6.231-.833-12.629-1.308-19.012-1.413-5.82-.096-10.461-4.891-10.365-10.711.096-5.819 4.92-10.449 10.711-10.365 7.199.118 14.419.655 21.459 1.596 5.769.771 9.821 6.073 9.05 11.843-.778 5.816-6.126 9.819-11.843 9.05z" fill="#fff9da"/></g><g><ellipse cx="198.911" cy="165.828" fill="#fdaece" rx="16.688" ry="13.411"/><ellipse cx="395.291" cy="165.828" fill="#fdaece" rx="16.688" ry="13.411"/><circle cx="227.521" cy="132.738" fill="#fff" r="33.09"/><ellipse cx="214.152" cy="132.738" fill="#383842" rx="19.722" ry="19.722" transform="matrix(.707 -.707 .707 .707 -31.136 190.307)"/><circle cx="366.681" cy="132.738" fill="#fff" r="33.09"/><g fill="#383842"><ellipse cx="353.313" cy="132.738" rx="19.722" ry="19.722" transform="matrix(.23 -.973 .973 .23 142.951 446.103)"/><path d="m305.581 140.776h-16.961c-3.36 0-6.321 2.208-7.269 5.432-2.986 10.155-6.415 31.002 15.749 31.002s18.735-20.846 15.749-31.002c-.946-3.224-3.908-5.432-7.268-5.432z"/></g></g><g><ellipse cx="106.709" cy="387.151" fill="#fdaece" rx="16.688" ry="13.411"/><ellipse cx="303.089" cy="387.151" fill="#fdaece" rx="16.688" ry="13.411"/><circle cx="135.318" cy="354.061" fill="#fff" r="33.09"/><ellipse cx="148.687" cy="354.061" fill="#383842" rx="19.722" ry="19.722" transform="matrix(.23 -.973 .973 .23 -230.064 417.424)"/><circle cx="274.479" cy="354.061" fill="#fff" r="33.09"/><g fill="#383842"><ellipse cx="287.778" cy="354.061" rx="19.722" ry="19.722" transform="matrix(.707 -.707 .707 .707 -166.071 307.192)"/><ellipse cx="204.899" cy="379.145" rx="14.806" ry="19.386"/></g></g></g></svg>